HIERARCHY
ROOT joint_Root
{
	OFFSET 0.0 0.0 0.0
	CHANNELS 6 Xposition Yposition Zposition Zrotation Xrotation Yrotation 
	JOINT Hips
	{
		OFFSET 4.5925 91.4895 -427.239
		CHANNELS 6 Xposition Yposition Zposition Zrotation Xrotation Yrotation 
		JOINT Spine
		{
			OFFSET 15.7357 0.0 0.0
			CHANNELS 6 Xposition Yposition Zposition Zrotation Xrotation Yrotation 
			JOINT Chest
			{
				OFFSET 8.98455 -0.406207 0.0
				CHANNELS 6 Xposition Yposition Zposition Zrotation Xrotation Yrotation 
				JOINT Neck
				{
					OFFSET 16.3773 0.0 0.0
					CHANNELS 6 Xposition Yposition Zposition Zrotation Xrotation Yrotation 
					JOINT Head
					{
						OFFSET 6.45672 0.0 0.0
						CHANNELS 6 Xposition Yposition Zposition Zrotation Xrotation Yrotation 
						End Site
						{
							OFFSET 0.0 0.0 0.0
						}
					}
				}
				JOINT Shoulder_L
				{
					OFFSET 12.9942 -0.242716 4.98039
					CHANNELS 6 Xposition Yposition Zposition Zrotation Xrotation Yrotation 
					JOINT UpperArm_L
					{
						OFFSET 5.34809 0.0 0.0
						CHANNELS 6 Xposition Yposition Zposition Zrotation Xrotation Yrotation 
						JOINT LowerArm_L
						{
							OFFSET 24.3286 1.87007e-05 0.0
							CHANNELS 6 Xposition Yposition Zposition Zrotation Xrotation Yrotation 
							JOINT Hand_L
							{
								OFFSET 22.2916 0.0 0.0
								CHANNELS 6 Xposition Yposition Zposition Zrotation Xrotation Yrotation 
								End Site
								{
									OFFSET 0.0 0.0 0.0
								}
							}
						}
					}
				}
				JOINT Shoulder_R
				{
					OFFSET 12.9945 -0.242716 -4.98039
					CHANNELS 6 Xposition Yposition Zposition Zrotation Xrotation Yrotation 
					JOINT UpperArm_R
					{
						OFFSET -5.34813 0.0 0.0
						CHANNELS 6 Xposition Yposition Zposition Zrotation Xrotation Yrotation 
						JOINT LowerArm_R
						{
							OFFSET -24.3289 0.000322201 0.0
							CHANNELS 6 Xposition Yposition Zposition Zrotation Xrotation Yrotation 
							JOINT Hand_R
							{
								OFFSET -22.2915 -0.000108084 0.0
								CHANNELS 6 Xposition Yposition Zposition Zrotation Xrotation Yrotation 
								End Site
								{
									OFFSET 0.0 0.0 0.0
								}
							}
						}
					}
				}
			}
		}
		JOINT UpperLeg_L
		{
			OFFSET -2.19248 -6.46944 0.0
			CHANNELS 6 Xposition Yposition Zposition Zrotation Xrotation Yrotation 
			JOINT LowerLeg_L
			{
				OFFSET 39.0811 0.0 -1.23785e-05
				CHANNELS 6 Xposition Yposition Zposition Zrotation Xrotation Yrotation 
				JOINT Foot_L
				{
					OFFSET 40.9854 0.0 -1.26872e-05
					CHANNELS 6 Xposition Yposition Zposition Zrotation Xrotation Yrotation 
					JOINT Toes_L
					{
						OFFSET 11.7543 0.0 0.0
						CHANNELS 6 Xposition Yposition Zposition Zrotation Xrotation Yrotation 
						End Site
						{
							OFFSET 0.0 0.0 0.0
						}
					}
				}
			}
		}
		JOINT UpperLeg_R
		{
			OFFSET -2.19251 6.46944 0.0
			CHANNELS 6 Xposition Yposition Zposition Zrotation Xrotation Yrotation 
			JOINT LowerLeg_R
			{
				OFFSET -39.0811 -0.00228153 -0.0401928
				CHANNELS 6 Xposition Yposition Zposition Zrotation Xrotation Yrotation 
				JOINT Foot_R
				{
					OFFSET -40.9854 0.0 0.0
					CHANNELS 6 Xposition Yposition Zposition Zrotation Xrotation Yrotation 
					JOINT Toes_R
					{
						OFFSET -11.7543 0.0 0.0
						CHANNELS 6 Xposition Yposition Zposition Zrotation Xrotation Yrotation 
						End Site
						{
							OFFSET 0.0 0.0 0.0
						}
					}
				}
			}
		}
	}
}
MOTION
Frames:	4
Frame Time:	0.0333333
0.000000 0.000000 0.000000 0.000000 0.000000 -0.000000 1.300680 90.192700 -3.513160 87.985100 -6.541460 10.228500 15.735700 0.000005 -0.000001 88.401800 76.093000 -89.699200 8.984550 -0.406207 -0.000000 20.029700 -0.896467 -2.444630 16.377300 -0.000001 -0.000001 4.252530 -3.663380 1.463180 6.456720 -0.000001 -0.000000 -12.214800 -1.696680 -3.371000 12.994200 -0.242716 4.980390 -91.290400 6.622470 -78.948300 5.348090 -0.000007 -0.000001 -47.756600 36.319200 -35.901600 24.328600 0.000019 0.000005 6.418930 17.233100 -20.793700 22.291600 -0.000001 0.000005 9.565000 5.221920 2.163550 12.994500 -0.242716 -4.980390 89.365600 3.959610 -80.889800 -5.348130 -0.000001 -0.000004 -49.569000 -10.953500 -75.227500 -24.328900 0.000322 -0.000009 24.929400 -11.028800 -112.371000 -22.291500 -0.000108 -0.000004 35.761300 5.291810 0.300805 -2.192480 -6.469440 -0.000000 -173.988000 -15.454400 -4.369340 39.081100 -0.000007 -0.000012 -0.221110 0.305881 35.862200 40.985400 -0.000006 -0.000013 1.093070 3.024970 -70.849000 11.754300 -0.000000 0.000003 -0.000139 -0.001363 -16.629500 -2.192510 6.469440 -0.000001 175.688000 18.412500 176.446000 -39.081100 -0.002282 -0.040193 -0.037580 0.060566 34.013200 -40.985400 0.000008 0.000006 6.354550 14.609100 -70.696300 -11.754300 -0.000006 -0.000006 -0.002212 -0.031336 -17.847300
0.000000 0.000000 0.000000 0.000000 0.000000 -0.000000 1.309730 90.191500 -3.547690 87.988400 -6.460170 10.235700 15.735700 0.000005 -0.000001 88.400600 76.102000 -89.701700 8.984550 -0.406207 -0.000000 20.011700 -0.896752 -2.452000 16.377300 -0.000001 -0.000001 4.214480 -3.723980 1.579440 6.456720 -0.000001 -0.000000 -12.218800 -1.722030 -3.362150 12.994200 -0.242716 4.980390 -91.279400 6.586650 -78.982500 5.348090 -0.000007 -0.000001 -47.715300 36.359800 -36.098600 24.328600 0.000019 0.000005 6.425180 17.242900 -20.802000 22.291600 -0.000001 0.000005 9.601400 5.220730 2.193920 12.994500 -0.242716 -4.980390 89.376900 3.894380 -80.902900 -5.348130 -0.000001 -0.000004 -46.016400 -10.667900 -75.599500 -24.328900 0.000322 -0.000009 25.173000 -11.139900 -112.347000 -22.291500 -0.000108 -0.000004 35.493400 5.302320 0.006954 -2.192480 -6.469440 -0.000000 -174.015000 -15.384700 -4.419940 39.081100 -0.000007 -0.000012 -0.223820 0.309436 35.879200 40.985400 -0.000006 -0.000013 1.105500 3.029000 -70.819400 11.754300 -0.000000 0.000003 -0.000140 -0.001367 -16.629600 -2.192510 6.469440 -0.000001 175.679000 18.447200 176.423000 -39.081100 -0.002282 -0.040193 -0.038836 0.062382 34.032700 -40.985400 0.000008 0.000006 6.395010 14.569200 -70.694400 -11.754300 -0.000006 -0.000006 -0.002299 -0.032403 -17.890700
0.000000 0.000000 0.000000 0.000000 0.000000 -0.000000 1.309540 90.193300 -3.575640 88.007500 -6.352590 10.266900 15.735700 0.000005 -0.000001 88.395200 76.107000 -89.709200 8.984550 -0.406207 -0.000000 20.001600 -0.900331 -2.477410 16.377300 -0.000001 -0.000001 4.188260 -3.764990 1.688590 6.456720 -0.000001 -0.000000 -12.223800 -1.729700 -3.357730 12.994200 -0.242716 4.980390 -91.285800 6.590480 -78.934600 5.348090 -0.000007 -0.000001 -47.612900 36.452000 -36.280100 24.328600 0.000019 0.000005 6.443950 17.231500 -20.870200 22.291600 -0.000001 0.000005 9.594480 5.220010 2.212470 12.994500 -0.242716 -4.980390 89.389200 3.827640 -80.926000 -5.348130 -0.000001 -0.000004 -42.731400 -10.459400 -75.832200 -24.328900 0.000322 -0.000009 25.996500 -11.491900 -112.222000 -22.291500 -0.000108 -0.000004 35.125100 5.314390 -0.334958 -2.192480 -6.469440 -0.000000 -174.052000 -15.293500 -4.426990 39.081100 -0.000007 -0.000012 -0.220792 0.305354 35.870000 40.985400 -0.000006 -0.000013 1.114400 3.046310 -70.785500 11.754300 -0.000000 0.000003 -0.000137 -0.001347 -16.628900 -2.192510 6.469440 -0.000001 175.674000 18.431300 176.438000 -39.081100 -0.002282 -0.040193 -0.031325 0.051203 34.062100 -40.985400 0.000008 0.000006 6.587640 14.427700 -70.762700 -11.754300 -0.000006 -0.000006 -0.002542 -0.035304 -18.008700
0.000000 0.000000 0.000000 0.000000 0.000000 -0.000000 1.299910 90.184500 -3.606550 87.993700 -6.201940 10.267500 15.735700 0.000005 -0.000001 88.451600 76.119500 -89.775200 8.984550 -0.406207 -0.000000 19.977500 -0.873708 -2.501550 16.377300 -0.000001 -0.000001 4.161300 -3.799620 1.783530 6.456720 -0.000001 -0.000000 -12.219300 -1.794400 -3.349280 12.994200 -0.242716 4.980390 -91.282900 6.577370 -78.937800 5.348090 -0.000007 -0.000001 -47.627600 36.431600 -36.346200 24.328600 0.000019 0.000005 6.460060 17.209300 -20.942200 22.291600 -0.000001 0.000005 9.580830 5.220870 2.190370 12.994500 -0.242716 -4.980390 89.400200 3.763660 -80.938100 -5.348130 -0.000001 -0.000004 -39.982300 -10.291900 -75.836100 -24.328900 0.000322 -0.000009 26.710300 -11.831400 -112.170000 -22.291500 -0.000108 -0.000004 34.782200 5.321700 -0.544777 -2.192480 -6.469440 -0.000000 -174.064000 -15.211200 -4.492670 39.081100 -0.000007 -0.000012 -0.219790 0.303335 35.926700 40.985400 -0.000006 -0.000013 1.126880 3.058370 -70.788400 11.754300 -0.000000 0.000003 -0.000132 -0.001303 -16.627300 -2.192510 6.469440 -0.000001 175.679000 18.492300 176.424000 -39.081100 -0.002282 -0.040193 -0.036180 0.058355 34.075700 -40.985400 0.000008 0.000006 6.365360 14.382300 -70.691600 -11.754300 -0.000006 -0.000006 -0.002348 -0.032990 -17.914600
